<svg xmlns="http://www.w3.org/2000/svg" viewBox="0 0 1200 600" width="60" height="36" role="img" aria-label="Flag of Wales" preserveAspectRatio="xMidYMid meet">
  <rect width="1200" height="300" fill="#FFFFFF"></rect>
  <rect y="300" width="1200" height="300" fill="#00843D"></rect>
  <g fill="#D30731" transform="translate(280,80)">
    
    <path d="&#xA;      M 30 380&#xA;      L 30 320&#xA;      Q 20 310 20 290&#xA;      Q 10 270 30 250&#xA;      Q 20 220 50 200&#xA;      Q 60 170 90 160&#xA;      L 100 130&#xA;      Q 120 110 150 110&#xA;      L 165 90&#xA;      Q 180 60 210 60&#xA;      L 230 40&#xA;      Q 260 20 300 30&#xA;      L 330 20&#xA;      Q 360 10 390 25&#xA;      L 420 30&#xA;      Q 450 35 470 60&#xA;      L 500 70&#xA;      Q 530 70 545 90&#xA;      L 575 95&#xA;      Q 600 110 600 135&#xA;      L 615 145&#xA;      Q 625 160 615 175&#xA;      L 595 175&#xA;      Q 585 175 580 165&#xA;      L 565 170&#xA;      L 580 185&#xA;      Q 600 195 615 215&#xA;      Q 625 230 615 245&#xA;      L 600 245&#xA;      Q 580 245 565 230&#xA;      L 545 215&#xA;      L 535 230&#xA;      Q 525 245 510 245&#xA;      L 490 240&#xA;      L 500 260&#xA;      L 490 275&#xA;      L 470 270&#xA;      L 460 285&#xA;      L 445 285&#xA;      L 445 260&#xA;      L 425 250&#xA;      L 425 285&#xA;      L 405 285&#xA;      L 405 250&#xA;      L 380 245&#xA;      L 380 285&#xA;      L 360 285&#xA;      L 360 250&#xA;      L 340 245&#xA;      L 340 285&#xA;      L 320 285&#xA;      L 320 250&#xA;      L 300 250&#xA;      L 280 240&#xA;      L 270 230&#xA;      Q 245 230 230 245&#xA;      L 220 285&#xA;      L 200 285&#xA;      L 200 260&#xA;      L 180 280&#xA;      L 160 285&#xA;      L 165 260&#xA;      L 145 270&#xA;      L 130 285&#xA;      L 110 285&#xA;      L 130 260&#xA;      L 110 250&#xA;      L 90 240&#xA;      L 70 250&#xA;      Q 55 270 55 285&#xA;      L 40 285&#xA;      L 40 260&#xA;      Z"></path>
    
    <path d="M 600 145 L 640 140 L 645 150 L 615 160 Z"></path>
    
    <circle cx="555" cy="115" r="8" fill="#FFFFFF"></circle>
    <circle cx="555" cy="115" r="4" fill="#000000"></circle>
    
    <path d="M 200 90 Q 230 70 260 90 Q 280 70 310 90 Q 340 70 370 90 Q 400 70 430 90 Q 460 70 490 90 L 490 130 L 200 130 Z" fill="#A30621"></path>
    
    <path d="&#xA;      M 30 250&#xA;      Q -10 230 -20 180&#xA;      Q -25 130 0 100&#xA;      Q 25 70 60 80&#xA;      Q 80 90 75 105&#xA;      Q 60 95 40 110&#xA;      Q 15 130 20 170&#xA;      Q 25 200 50 215&#xA;      Z"></path>
  </g>
</svg>