<?xml version="1.0" encoding="UTF-8"?>
<svg id="Layer_2" data-name="Layer 2" xmlns="http://www.w3.org/2000/svg" width="167.03mm" height="53.2mm" viewBox="0 0 473.47 150.8">
  <defs>
    
  </defs>
  <g id="Layer_1-2" data-name="Layer 1">
    <path class="cls-3" d="M34.24,54.65h-17.9l8.99-32.58,8.9,32.58ZM52.05,76.31L33.41,11.23c-.73-2.24-1.28-3.12-3.4-3.12h-7.53c-2.11,0-2.76.88-3.4,3.12L.45,76.31c-.83,2.94-.46,3.23.64,3.23h6.61c1.47,0,1.74-.49,2.29-2.54l3.86-13.66h22.86l3.95,13.66c.56,2.05.46,2.54,2.2,2.54h7.26c1.74,0,2.84-.1,1.92-3.23Z"></path>
    <path class="cls-3" d="M172.59,79.54h-6.89c-1.47,0-2.2-.69-2.2-2.83v-27.82c0-1.76-.27-1.94-1.74-1.94h-23.88c-1.1,0-1.47.1-1.47,1.66v27.82c0,2.53-.54,3.12-2.75,3.12h-6.43c-1.56,0-1.94-.98-1.94-3.61V10.64c0-1.85.38-2.53,2.03-2.53h6.61c2.02,0,2.48.68,2.48,3.22v24.49c0,1.56.65,1.85,2.11,1.85h23.42c1.1,0,1.56-.49,1.56-1.65V10.74c0-1.85.64-2.62,2.57-2.62h6.43c2.11,0,2.11.78,2.11,2.44v65.88c0,2.53-.18,3.12-2.02,3.12Z"></path>
    <path class="cls-3" d="M382.54,80.9c-10.74,0-17.17-2.24-19.56-4-1.01-.78.28-9.86,1.65-9.47,2.57.98,7.17,3.61,16.44,3.61,8.44,0,15.15-2.53,15.15-10.05,0-6.24-3.21-9.56-12.95-13.67-9.73-4.19-18.54-9.17-18.54-21.85,0-10.15,7.61-18.44,23.59-18.44,11.2,0,14.22,1.46,16.07,2.15,1.92.68-.28,9.76-2.2,9.17-2.66-.87-8.09-2.14-12.95-2.14-9.91,0-13.13,3.6-13.13,9.27s3.95,8.69,12.76,12.3c12.3,5.27,19.09,12.1,19.09,22.74,0,15.91-13.03,20.38-25.43,20.38Z"></path>
    <path class="cls-3" d="M89.3,48.63v35.95c0,2.53-.55,3.12-2.75,3.12h1.22c-1.56,0-1.92-.98-1.92-3.61V2.54c0-1.86.37-2.54,2.02-2.54h-1.04c2.02,0,2.47.68,2.47,3.22v32.64"></path>
    <path class="cls-3" d="M214.39,48.63v35.95c0,2.53-.55,3.12-2.75,3.12h1.23c-1.56,0-1.93-.98-1.93-3.61V2.54c0-1.86.37-2.54,2.02-2.54h-1.05c2.02,0,2.48.68,2.48,3.22v32.64"></path>
    <path class="cls-3" d="M331.81,48.63v35.95c0,2.53-.55,3.12-2.75,3.12h1.23c-1.56,0-1.93-.98-1.93-3.61V2.54c0-1.86.37-2.54,2.02-2.54h-1.05c2.02,0,2.48.68,2.48,3.22v32.64"></path>
    <path class="cls-3" d="M284.75,55.52c0,12.62-7.83,14.27-15.01,14.27h-7.45c-2.03,0-2.4-.87-2.4-2.25V18.92c0-1.36.19-2.05,2.11-2.05h7.65c9.2,0,15.1,4.02,15.1,14.58v24.07ZM295.88,56.88v-26.22c0-18.78-12.61-23.09-26.31-23.09h-18.7c-1.65,0-1.93,1.28-1.93,3.22v64.97c0,2.54,1.11,3.42,2.31,3.42h21.36c8.84,0,23.28-2.45,23.28-22.31Z"></path>
    <g>
      <path class="cls-3" d="M441.55.07l-.68,1.43,4.74,1.61s.72,1.72-.18,3.93c-4.75,2.39-8.45,7.03-9.29,12.37-1.24,7.79,4.08,14.1,11.87,14.1s15.1-6.31,16.34-14.1c.24-1.56.22-3.06-.02-4.46,1.05-2.55,3.65-4.26,3.65-4.26l4.82,1.64.69-1.42L441.55.07Z"></path>
      <line class="cls-3" x1="469.47" y1="10.06" x2="468.37" y2="17.01"></line>
      <line class="cls-2" x1="469.47" y1="10.06" x2="468.37" y2="17.01"></line>
      <path class="cls-3" d="M469.37,17.19c-.09.58-.63,1.04-1.21,1.04s-.96-.47-.87-1.04c.09-.58.63-1.04,1.2-1.04s.96.46.88,1.04Z"></path>
      <line class="cls-3" x1="468.25" y1="17.7" x2="467.49" y2="22.52"></line>
      <line class="cls-1" x1="468.25" y1="17.7" x2="467.49" y2="22.52"></line>
      <line class="cls-3" x1="467.84" y1="17.73" x2="466.95" y2="21.69"></line>
      <line class="cls-1" x1="467.84" y1="17.73" x2="466.95" y2="21.69"></line>
      <line class="cls-3" x1="468.54" y1="17.75" x2="468.08" y2="21.84"></line>
      <line class="cls-1" x1="468.54" y1="17.75" x2="468.08" y2="21.84"></line>
      <line class="cls-3" x1="468.85" y1="17.69" x2="468.65" y2="20.9"></line>
      <line class="cls-1" x1="468.85" y1="17.69" x2="468.65" y2="20.9"></line>
      <line class="cls-3" x1="467.59" y1="17.57" x2="466.69" y2="20.6"></line>
      <line class="cls-1" x1="467.59" y1="17.57" x2="466.69" y2="20.6"></line>
      <g>
        <path class="cls-3" d="M440.03,63.13c6.1-4.44,13.19-10.93,20.39-20.34l2.3-14.53c-3.15,5.33-9.04,9.06-15.22,9.06s-11.04-3.85-12.43-9.3l-3.69,23.33c2.99,4.73,5.89,8.6,8.65,11.79Z"></path>
        <path class="cls-3" d="M455.25,75.42l2.67-16.82c-2.61,4.12-5.81,8.34-9.75,12.4,2.6,2.03,4.98,3.45,7.08,4.42Z"></path>
        <path class="cls-3" d="M434.15,67.01c-1.57-3.03-2.83-6.02-3.85-8.82l-1.87,11.82c1.66-.75,3.59-1.73,5.72-3Z"></path>
        <path class="cls-3" d="M440.98,77.52c-4.38,3.48-9.42,6.7-15.25,9.47l-.08.52h26.29c-4.33-2.84-7.95-6.28-10.96-9.99Z"></path>
      </g>
    </g>
    <g>
      <g>
        <path class="cls-4" d="M9.14,97.96c1.65,0,3.09-.03,3.63-.08,0,.57,0,2.5.05,3.7-.1.21-.57.26-.82.1-.26-1.49-.67-2.24-1.65-2.5-.69-.18-1.34-.21-2.16-.21h-1.31c-1.08,0-1.08.05-1.08,1.49v4.61c0,.64.03.69.62.69h1.52c2.24,0,2.65-.05,2.88-1.13l.2-.87c.15-.18.65-.18.77.03-.03.67-.08,1.62-.08,2.57s.05,1.88.08,2.68c-.13.21-.62.21-.77.03l-.2-1c-.23-1.08-.65-1.13-2.88-1.13h-1.52c-.59,0-.62.05-.62.69v3.6c0,2.73.23,2.81,1.44,2.91l1.08.13c.18.18.15.64-.05.75-1.65-.05-2.81-.08-3.94-.08s-2.29.03-3.47.08c-.21-.1-.23-.57-.05-.75l.57-.08c1.21-.15,1.44-.23,1.44-2.96v-9.57c0-2.73-.23-2.8-1.44-2.98l-.34-.05c-.18-.18-.15-.64.05-.75.9.05,2.06.08,3.19.08h4.86Z"></path>
        <path class="cls-4" d="M32.75,106.5c0,5.07-3.86,8.85-9.06,8.85-5.82,0-9.16-4.09-9.16-8.67,0-5.25,3.81-9.14,9.21-9.14,5.94,0,9.01,4.27,9.01,8.96ZM18.03,105.93c0,3.55,1.52,8.39,5.92,8.39,2.93,0,5.3-2.19,5.3-7.36,0-3.89-1.75-8.39-5.84-8.39-2.57,0-5.38,1.88-5.38,7.36Z"></path>
        <path class="cls-4" d="M36.88,101.82c0-2.47-.03-2.78-1.23-2.91l-.67-.08c-.18-.18-.18-.59.03-.72,1.62-.15,3.81-.23,5.92-.23s3.76.26,4.89.88c1.31.69,2.27,1.9,2.27,3.76,0,2.37-1.83,3.55-3.09,4.07-.15.08-.1.28,0,.44,2.06,3.47,3.35,5.66,4.56,6.67.72.62,1.47.77,1.78.8.13.1.13.38.05.51-.31.08-.8.15-1.7.15-2.47,0-3.81-1-5.38-3.4-.69-1.08-1.41-2.5-2.03-3.5-.46-.77-.75-.88-1.6-.88-.77,0-.8.03-.8.57v3.29c0,2.73.23,2.81,1.44,2.96l.57.08c.18.18.15.64-.05.75-1.13-.05-2.29-.08-3.42-.08s-2.29.03-3.47.08c-.21-.1-.28-.57-.05-.75l.57-.08c1.21-.15,1.44-.23,1.44-2.96v-9.42ZM39.87,105.52c0,.82,0,.88,1.23.88,2.52,0,3.68-1.23,3.68-3.68,0-2.03-1.31-3.81-3.55-3.81-1.34,0-1.36.08-1.36,1.26v5.35Z"></path>
        <path class="cls-4" d="M58.97,114.27c-.46-.54-.8-2.32-.77-3.91.15-.26.59-.28.8-.1.46,1.31,1.85,4.07,4.38,4.07,1.95,0,3.06-1.18,3.06-2.75,0-1.47-.69-2.65-2.63-3.73l-1.11-.62c-1.93-1.08-3.63-2.65-3.63-4.97,0-2.55,1.9-4.71,5.66-4.71,1.34,0,2.32.31,3.53.54.28.57.54,2.27.54,3.47-.13.23-.59.26-.82.08-.39-1.34-1.29-3.06-3.47-3.06-2.06,0-2.91,1.34-2.91,2.7,0,1.08.75,2.24,2.44,3.14l1.6.85c1.67.88,3.53,2.47,3.53,5.07,0,2.93-2.24,5.02-5.97,5.02-2.37,0-3.71-.77-4.22-1.08Z"></path>
        <path class="cls-4" d="M87.17,102.28c-.18.21-.64.23-.82.05-.44-1.62-1.6-3.76-4.99-3.76s-6.56,2.32-6.56,7.59,3.42,8.16,6.74,8.16,4.66-2.16,5.38-3.84c.23-.23.64-.13.77.1-.18,1.72-.88,3.42-1.24,3.91-.31.05-.62.15-.9.23-.57.18-2.34.62-4.01.62-2.55,0-4.73-.52-6.59-1.72-2.08-1.37-3.65-3.71-3.65-7.08,0-3.01,1.34-5.35,3.24-6.82,1.9-1.44,4.5-2.19,7.1-2.19,1.47,0,3.24.26,4.45.57.31.08.49.1.72.15.05.59.1,2.11.36,4.01Z"></path>
        <path class="cls-4" d="M95.49,106.71c-1.31,0-1.39.05-1.39.75v3.78c0,2.73.23,2.81,1.44,2.93l.77.1c.18.18.15.64-.05.75-1.34-.05-2.5-.08-3.63-.08s-2.29.03-3.27.08c-.2-.1-.23-.57-.05-.75l.36-.05c1.21-.18,1.44-.26,1.44-2.99v-9.57c0-2.73-.23-2.8-1.44-2.96l-.57-.08c-.18-.13-.15-.64.05-.75,1.13.05,2.34.08,3.47.08s2.29-.03,3.29-.08c.21.1.23.62.05.75l-.44.08c-1.21.15-1.44.23-1.44,2.96v3.11c0,.72.08.77,1.39.77h6.02c1.31,0,1.39-.05,1.39-.77v-3.11c0-2.73-.23-2.8-1.44-2.96l-.57-.08c-.18-.13-.15-.64.05-.75,1.18.05,2.34.08,3.47.08s2.29-.03,3.32-.08c.21.1.23.62.05.75l-.46.08c-1.21.15-1.44.23-1.44,2.96v9.57c0,2.73.23,2.81,1.44,2.96l.57.08c.18.18.15.64-.05.75-1.13-.05-2.29-.08-3.42-.08s-2.34.03-3.47.08c-.2-.1-.23-.57-.05-.75l.57-.08c1.21-.15,1.44-.23,1.44-2.96v-3.78c0-.69-.08-.75-1.39-.75h-6.02Z"></path>
        <path class="cls-4" d="M128.24,106.5c0,5.07-3.86,8.85-9.06,8.85-5.82,0-9.16-4.09-9.16-8.67,0-5.25,3.81-9.14,9.21-9.14,5.94,0,9.01,4.27,9.01,8.96ZM113.52,105.93c0,3.55,1.52,8.39,5.92,8.39,2.93,0,5.3-2.19,5.3-7.36,0-3.89-1.75-8.39-5.84-8.39-2.57,0-5.38,1.88-5.38,7.36Z"></path>
        <path class="cls-4" d="M148.61,106.5c0,5.07-3.86,8.85-9.06,8.85-5.82,0-9.16-4.09-9.16-8.67,0-5.25,3.81-9.14,9.21-9.14,5.94,0,9.01,4.27,9.01,8.96ZM133.89,105.93c0,3.55,1.52,8.39,5.92,8.39,2.93,0,5.3-2.19,5.3-7.36,0-3.89-1.75-8.39-5.84-8.39-2.57,0-5.38,1.88-5.38,7.36Z"></path>
        <path class="cls-4" d="M155.72,110.69c0,1.29.05,2.21.44,2.65.31.36.72.57,2.78.57,2.86,0,3.27-.13,4.45-2.78.26-.13.67-.05.8.15-.2,1.08-.77,3.04-1.08,3.73-1.08-.05-3.29-.08-6.18-.08h-2.68c-1.31,0-2.6.03-3.68.08-.21-.1-.28-.62-.05-.75l.77-.13c1.21-.15,1.44-.23,1.44-2.91v-9.57c0-2.68-.23-2.75-1.44-2.93l-.72-.1c-.18-.13-.18-.64.05-.75,1.29.05,2.44.08,3.63.08s2.29-.03,3.42-.08c.23.1.26.62.05.75l-.57.1c-1.21.18-1.44.26-1.44,2.93v9.03Z"></path>
        <path class="cls-4" d="M176.68,110.69c0,1.29.05,2.21.44,2.65.31.36.72.57,2.78.57,2.86,0,3.27-.13,4.45-2.78.26-.13.67-.05.8.15-.2,1.08-.77,3.04-1.08,3.73-1.08-.05-3.29-.08-6.18-.08h-2.68c-1.31,0-2.6.03-3.68.08-.21-.1-.28-.62-.05-.75l.77-.13c1.21-.15,1.44-.23,1.44-2.91v-9.57c0-2.68-.23-2.75-1.44-2.93l-.72-.1c-.18-.13-.18-.64.05-.75,1.29.05,2.44.08,3.63.08s2.29-.03,3.42-.08c.23.1.26.62.05.75l-.57.1c-1.21.18-1.44.26-1.44,2.93v9.03Z"></path>
        <path class="cls-4" d="M188.1,101.66c0-2.73-.23-2.8-1.44-2.98l-.41-.05c-.18-.18-.15-.64.05-.75.98.05,2.19.08,3.32.08h4.92c1.65,0,3.14-.03,3.47-.08.1.44.26,2.47.41,3.58-.1.21-.62.26-.82.1-.41-1.49-.8-2.14-1.62-2.34-.59-.18-1.37-.23-2.06-.23h-1.72c-1.11,0-1.11.05-1.11,1.52v4.35c0,.67.03.69.62.69h1.23c2.24,0,2.68-.03,2.86-1.13l.18-.88c.2-.18.69-.18.82.03-.03.69-.08,1.62-.08,2.57s.05,1.88.08,2.7c-.13.18-.62.18-.82.03l-.18-1.03c-.18-1.08-.62-1.13-2.86-1.13h-1.23c-.59,0-.62.05-.62.69v3.27c0,1.31.05,2.24.44,2.68.31.36.75.57,2.91.57,3.27.05,3.83-.69,4.73-2.78.23-.18.67-.1.82.15-.15,1.08-.72,3.04-1.08,3.73-1.13-.05-3.35-.08-6.36-.08h-2.93c-1.13,0-2.7.03-3.86.08-.21-.1-.23-.57-.05-.75l.95-.1c1.21-.13,1.44-.21,1.44-2.93v-9.57Z"></path>
        <path class="cls-4" d="M205.31,108.64c-.67,0-.65,0-.88.69l-1.06,3.09c-.52,1.52-.41,1.6.54,1.72l.75.13c.18.18.15.64-.05.75-.82-.05-1.67-.05-2.73-.08-.85,0-1.65.03-2.55.08-.18-.13-.21-.51-.03-.75l.77-.13c.75-.1,1.03-.34,1.41-1.18.31-.67.72-1.75,1.26-3.14l3.52-9.16c.34-.82.57-1.44.49-1.88.9-.18,1.75-1.24,1.8-1.24.2,0,.33.08.44.21.41,1.16.75,2.37,1.16,3.53l3.7,10.78c.59,1.72.72,1.9,2.03,2.14l.38.08c.21.18.21.62.03.75-1.06-.05-2.01-.08-3.35-.08-1.11,0-2.24.05-3.14.08-.21-.13-.23-.59-.08-.75l.57-.08c.93-.1,1-.26.67-1.36l-1.21-3.5c-.26-.69-.34-.69-1.06-.69h-3.42ZM208.39,107.48c.72,0,.82-.05.62-.67l-1.08-3.09c-.44-1.37-.59-1.85-.72-2.03h-.05c-.1.18-.31.82-.77,2.03l-1.08,3.01c-.28.75-.21.75.41.75h2.68Z"></path>
        <path class="cls-4" d="M219.14,101.82c0-2.47-.03-2.78-1.23-2.93l-.54-.05c-.18-.13-.18-.59.03-.72,1.85-.15,3.91-.23,6.44-.23s4.19.2,6.07.88c3.09,1.13,5.28,3.86,5.28,7.69,0,2.86-1.41,5.79-4.61,7.41-1.83.93-4.04,1.24-6.38,1.24-1.57,0-2.78-.15-3.73-.15s-2.14.03-3.27.08c-.21-.1-.23-.57-.05-.75l.57-.08c1.21-.15,1.44-.23,1.44-2.96v-9.42ZM222.12,110.23c0,2.5.18,3.83,2.91,3.83,4.58,0,6.64-3.24,6.64-7.59,0-5.1-2.96-7.57-7.26-7.57-1.08,0-1.9.21-2.09.36-.18.15-.2.69-.2,1.9v9.06Z"></path>
        <path class="cls-4" d="M239.3,101.66c0-2.73-.23-2.8-1.44-2.98l-.41-.05c-.18-.18-.15-.64.05-.75.98.05,2.19.08,3.32.08h4.92c1.65,0,3.14-.03,3.47-.08.1.44.26,2.47.41,3.58-.1.21-.62.26-.82.1-.41-1.49-.8-2.14-1.62-2.34-.59-.18-1.37-.23-2.06-.23h-1.72c-1.11,0-1.11.05-1.11,1.52v4.35c0,.67.03.69.62.69h1.23c2.24,0,2.68-.03,2.86-1.13l.18-.88c.2-.18.69-.18.82.03-.03.69-.08,1.62-.08,2.57s.05,1.88.08,2.7c-.13.18-.62.18-.82.03l-.18-1.03c-.18-1.08-.62-1.13-2.86-1.13h-1.23c-.59,0-.62.05-.62.69v3.27c0,1.31.05,2.24.44,2.68.31.36.75.57,2.91.57,3.27.05,3.83-.69,4.73-2.78.23-.18.67-.1.82.15-.15,1.08-.72,3.04-1.08,3.73-1.13-.05-3.35-.08-6.36-.08h-2.93c-1.13,0-2.7.03-3.86.08-.21-.1-.23-.57-.05-.75l.95-.1c1.21-.13,1.44-.21,1.44-2.93v-9.57Z"></path>
        <path class="cls-4" d="M254.22,101.82c0-2.47-.03-2.78-1.23-2.91l-.67-.08c-.18-.18-.18-.59.03-.72,1.62-.15,3.81-.23,5.92-.23s3.76.26,4.89.88c1.31.69,2.27,1.9,2.27,3.76,0,2.37-1.83,3.55-3.09,4.07-.15.08-.1.28,0,.44,2.06,3.47,3.35,5.66,4.56,6.67.72.62,1.47.77,1.78.8.13.1.13.38.05.51-.31.08-.8.15-1.7.15-2.47,0-3.81-1-5.38-3.4-.69-1.08-1.41-2.5-2.03-3.5-.46-.77-.75-.88-1.6-.88-.77,0-.8.03-.8.57v3.29c0,2.73.23,2.81,1.44,2.96l.57.08c.18.18.15.64-.05.75-1.13-.05-2.29-.08-3.42-.08s-2.29.03-3.47.08c-.21-.1-.28-.57-.05-.75l.57-.08c1.21-.15,1.44-.23,1.44-2.96v-9.42ZM257.2,105.52c0,.82,0,.88,1.23.88,2.52,0,3.68-1.23,3.68-3.68,0-2.03-1.31-3.81-3.55-3.81-1.34,0-1.36.08-1.36,1.26v5.35Z"></path>
        <path class="cls-4" d="M269.75,114.27c-.46-.54-.8-2.32-.77-3.91.15-.26.59-.28.8-.1.46,1.31,1.85,4.07,4.38,4.07,1.95,0,3.06-1.18,3.06-2.75,0-1.47-.69-2.65-2.63-3.73l-1.11-.62c-1.93-1.08-3.63-2.65-3.63-4.97,0-2.55,1.9-4.71,5.66-4.71,1.34,0,2.32.31,3.53.54.28.57.54,2.27.54,3.47-.13.23-.59.26-.82.08-.39-1.34-1.29-3.06-3.47-3.06-2.06,0-2.91,1.34-2.91,2.7,0,1.08.75,2.24,2.44,3.14l1.6.85c1.67.88,3.53,2.47,3.53,5.07,0,2.93-2.24,5.02-5.97,5.02-2.37,0-3.71-.77-4.22-1.08Z"></path>
        <path class="cls-4" d="M282.63,118.13c-.36-.13-.46-.44-.28-.77.9-.28,2.21-.93,2.21-2.29,0-1.13-1.24-1.41-1.49-1.54-.36-.18-.59-.52-.59-.95,0-.75.59-1.36,1.6-1.36s2.16.9,2.16,2.8c0,2.24-1.7,3.55-3.6,4.12Z"></path>
        <path class="cls-4" d="M297.16,101.82c0-2.34-.03-2.73-1.11-2.88l-.9-.1c-.18-.18-.18-.62.03-.72,1.8-.2,3.35-.23,5.69-.23s4.22.36,5.38,1.03c1.34.8,2.19,2.16,2.19,3.86,0,3.91-3.73,4.99-5.76,4.99-.23,0-.44,0-.65-.03-.18-.15-.2-.49-.08-.64,2.34-.46,3.19-2.16,3.19-4.27s-1.34-3.91-3.68-3.91c-1.29,0-1.31.08-1.31,1.08v11.24c0,2.73.23,2.81,1.44,2.93l.95.1c.15.18.13.64-.05.75-1.52-.05-2.68-.08-3.81-.08s-2.29.03-3.32.08c-.2-.1-.23-.57-.05-.75l.41-.05c1.21-.18,1.44-.26,1.44-2.99v-9.42Z"></path>
        <path class="cls-4" d="M316.58,100.12c0-1.08-.03-1.13-.69-1.13h-1.44c-2.37,0-3.06.28-4.01,2.37-.18.15-.72.08-.82-.18.44-1.39.82-2.99,1-3.89.05-.08.15-.1.28-.1.1,0,.21.03.26.1.13.65.49.67,2.24.67h10.5c1.26,0,1.65-.08,1.96-.67.1-.05.21-.1.31-.1.15,0,.28.05.34.13-.26,1.06-.46,3.27-.38,4.09-.13.21-.57.26-.8.08-.33-2.01-.82-2.5-3.58-2.5h-1.47c-.67,0-.7.05-.7,1.13v11.12c0,2.73.23,2.81,1.44,2.93l.93.1c.18.18.15.64-.05.75-1.49-.05-2.65-.08-3.78-.08s-2.34.03-3.99.08c-.21-.1-.23-.62-.05-.75l1.08-.13c1.21-.1,1.44-.18,1.44-2.91v-11.12Z"></path>
        <path class="cls-4" d="M345,101.79c0,1.93-1.54,2.55-2.42,3.06,1.98,1.29,2.96,2.47,4.32,4.58.83-1.11,1.72-2.86,2.47-4.5.44-.98.54-1.23-.18-1.36l-.75-.13c-.23-.23-.18-.62.08-.72h1.41c1.31,0,3.73-.1,4.32-.15.18.1.26.51.05.72l-1.18.26c-1.34.28-1.88,1.03-2.75,2.52-.62,1.03-1.54,2.42-2.67,4.04-.15.23-.13.46.05.75,1.08,1.7,2.27,2.75,4.09,2.75.72,0,1.55-.31,2.09-.7.26.03.44.28.36.54-1.26,1.36-3.12,1.85-4.4,1.85-1.21,0-2.52-.34-3.01-.82-.36-.36-.9-1.16-1.24-1.7-1.7,1.72-3.35,2.52-5.33,2.52-3.7,0-5.15-2.55-5.2-4.61.05-2.68,2.01-4.19,3.94-5.2-.39-.33-1.8-1.36-1.8-3.16,0-2.32,1.88-3.86,4.01-3.86,2.29,0,3.73,1.54,3.73,3.32ZM339.96,106.19c-.13,0-.39.15-.59.31-.88.62-1.57,1.93-1.57,3.22,0,2.16,1.8,3.68,4.04,3.68,1.13,0,2.19-.46,2.98-1.18.39-.33.39-.49.08-.98-.62-.98-1.34-1.95-2.09-2.78-1.21-1.34-2.73-2.26-2.86-2.26ZM339.52,101.38c0,1.08.62,1.85,1.75,2.68.15.1.36.23.41.23.08,0,.21-.1.26-.13.49-.54.85-1.39.85-2.47,0-1.34-.65-2.29-1.62-2.29-.9,0-1.65.8-1.65,1.98Z"></path>
        <path class="cls-4" d="M364.39,101.82c0-2.47-.03-2.78-1.23-2.91l-.67-.08c-.18-.18-.18-.59.03-.72,1.16-.1,3.04-.23,5.87-.23,2.16,0,3.89.2,5.04.88,1.18.69,1.8,1.72,1.8,3.35,0,1.52-1.11,2.67-2.91,3.27-.1.03-.15.1-.15.15s.05.1.21.15c1.95.31,4.14,1.57,4.14,4.48,0,1.18-.39,2.47-1.57,3.42-1.21,1-2.91,1.44-5.84,1.44-1.13,0-2.21-.08-3.19-.08-1.13,0-2.34.03-3.47.08-.21-.1-.23-.57-.05-.75l.57-.08c1.21-.15,1.44-.23,1.44-2.96v-9.42ZM367.37,104.65c0,.67.08.7,1.11.7,2.42,0,3.53-.95,3.53-3.27s-1.67-3.17-3.27-3.17c-1.29,0-1.36.05-1.36,1.08v4.66ZM367.37,110.69c0,2.34.26,3.29,2.5,3.29,1.77,0,3.35-1.16,3.35-3.45,0-2.65-1.8-4.22-4.66-4.22-1.13,0-1.18.15-1.18.67v3.7Z"></path>
        <path class="cls-4" d="M380.51,101.66c0-2.73-.23-2.8-1.44-2.98l-.41-.05c-.18-.18-.15-.64.05-.75.98.05,2.19.08,3.32.08h4.92c1.65,0,3.14-.03,3.47-.08.1.44.26,2.47.41,3.58-.1.21-.62.26-.82.1-.41-1.49-.8-2.14-1.62-2.34-.59-.18-1.37-.23-2.06-.23h-1.72c-1.11,0-1.11.05-1.11,1.52v4.35c0,.67.03.69.62.69h1.23c2.24,0,2.68-.03,2.86-1.13l.18-.88c.2-.18.69-.18.82.03-.03.69-.08,1.62-.08,2.57s.05,1.88.08,2.7c-.13.18-.62.18-.82.03l-.18-1.03c-.18-1.08-.62-1.13-2.86-1.13h-1.23c-.59,0-.62.05-.62.69v3.27c0,1.31.05,2.24.44,2.68.31.36.75.57,2.91.57,3.27.05,3.83-.69,4.73-2.78.23-.18.67-.1.82.15-.15,1.08-.72,3.04-1.08,3.73-1.13-.05-3.35-.08-6.36-.08h-2.93c-1.13,0-2.7.03-3.86.08-.21-.1-.23-.57-.05-.75l.95-.1c1.21-.13,1.44-.21,1.44-2.93v-9.57Z"></path>
        <path class="cls-4" d="M398.26,109.72c0-1.44-.1-1.83-.82-3.19l-3.09-6.1c-.57-1.11-.77-1.42-1.93-1.65l-.67-.15c-.15-.18-.1-.67.1-.75,1.11.05,2.19.08,3.24.08,1.13,0,2.7-.03,3.29-.08.21.1.26.57.05.75l-.77.13c-.41.05-.54.13-.54.33s.1.49.46,1.34c1.03,2.21,1.96,4.3,2.99,6.17,1.05-1.96,2.01-3.76,3.01-5.69.44-.88.69-1.44.69-1.72,0-.26-.23-.33-.59-.38l-.77-.18c-.18-.18-.18-.62.08-.75,1.13.05,1.93.08,2.7.08s1.62-.03,2.44-.08c.23.13.23.54.05.75l-.75.15c-1.16.2-1.47.69-2.8,2.96-.88,1.47-1.65,2.88-2.44,4.32-.77,1.34-.95,1.88-.95,3.63v1.54c0,2.73.23,2.81,1.49,2.93l.98.1c.18.18.15.64-.05.75-1.6-.05-2.75-.08-3.89-.08s-2.34.03-3.73.08c-.21-.1-.23-.57-.05-.75l.82-.1c1.21-.13,1.44-.21,1.44-2.93v-1.52Z"></path>
        <path class="cls-4" d="M426.07,106.5c0,5.07-3.86,8.85-9.06,8.85-5.82,0-9.16-4.09-9.16-8.67,0-5.25,3.81-9.14,9.21-9.14,5.94,0,9.01,4.27,9.01,8.96ZM411.35,105.93c0,3.55,1.52,8.39,5.92,8.39,2.93,0,5.3-2.19,5.3-7.36,0-3.89-1.75-8.39-5.84-8.39-2.57,0-5.38,1.88-5.38,7.36Z"></path>
        <path class="cls-4" d="M444.36,110.57c0,.77,0,3.94.08,4.53-.21.28-.57.38-.88.36-.41-.54-1.16-1.41-3.01-3.52l-6.02-6.87c-1.67-1.88-2.5-2.86-2.93-3.24-.08,0-.08.28-.08,1.65v5.02c0,1.93.03,4.3.46,5.07.23.38.67.54,1.31.64l.57.08c.23.18.21.67-.05.75-.95-.05-1.96-.08-2.93-.08-1.08,0-1.77.03-2.67.08-.21-.13-.26-.57-.05-.75l.57-.13c.49-.08.95-.18,1.13-.59.33-.8.33-3.04.33-5.07v-6.1c0-2.01.03-2.42-.85-3.16-.28-.23-1-.44-1.36-.51l-.39-.08c-.18-.15-.15-.67.1-.75.98.1,2.39.08,3.04.08.54,0,1.16-.03,1.78-.08.44,1.11,3.24,4.35,4.14,5.33l2.57,2.78c1.08,1.18,3.47,3.91,3.73,4.07.08-.08.08-.21.08-.62v-5.02c0-1.93-.03-4.3-.49-5.07-.23-.39-.64-.54-1.29-.64l-.59-.08c-.23-.18-.21-.67.05-.75,1,.05,1.95.08,2.96.08,1.11,0,1.78-.03,2.7-.08.2.13.26.57.05.75l-.59.13c-.49.08-.93.18-1.11.59-.36.8-.36,3.04-.36,5.07v6.15Z"></path>
        <path class="cls-4" d="M450.26,101.82c0-2.47-.03-2.78-1.23-2.93l-.54-.05c-.18-.13-.18-.59.03-.72,1.85-.15,3.91-.23,6.44-.23s4.19.2,6.07.88c3.09,1.13,5.28,3.86,5.28,7.69,0,2.86-1.41,5.79-4.61,7.41-1.83.93-4.04,1.24-6.38,1.24-1.57,0-2.78-.15-3.73-.15s-2.14.03-3.27.08c-.21-.1-.23-.57-.05-.75l.57-.08c1.21-.15,1.44-.23,1.44-2.96v-9.42ZM453.25,110.23c0,2.5.18,3.83,2.91,3.83,4.58,0,6.64-3.24,6.64-7.59,0-5.1-2.96-7.57-7.26-7.57-1.08,0-1.9.21-2.09.36-.18.15-.2.69-.2,1.9v9.06Z"></path>
      </g>
      <g>
        <path class="cls-4" d="M54.94,136.57c0,2.07-1.65,3.69-3.67,3.69s-3.65-1.6-3.65-3.69,1.6-3.67,3.65-3.67,3.67,1.62,3.67,3.67Z"></path>
        <path class="cls-4" d="M61.26,142.8c-.02-1.01.14-2.33.45-3.41.14-.19.75-.19.92.05.05.66.19,1.62.68,2.47.71,1.25,1.79,1.86,3.06,1.86,1.46,0,2.8-.99,2.8-2.85,0-1.18-.63-2.16-1.98-3.13l-.59-.42c-1.43-1.04-2.57-2.35-2.57-3.93,0-3.01,2.5-4.92,5.77-4.89,1.72.02,3.29.52,4.31,1.27-.31.66-.71,1.74-1.04,3.13-.19.28-.78.21-.92,0,.28-1.72-.52-3.32-2.49-3.32-1.79,0-2.82,1.37-2.82,2.54,0,.73.35,1.65,2,2.75l.73.49c1.37.92,2.68,2.31,2.68,4.4,0,2.89-2.21,5.03-6.26,5.03-2.42,0-4.19-1.08-4.73-2.05Z"></path>
        <path class="cls-4" d="M79.5,135.72c0,.19-.05.49-.12.66l-2.33,5.72c-.16.42-.09.64.19.64.14,0,.42-.09.89-.49,1.95-1.67,3.65-5.11,4.71-7.32.26-.12.52-.19.87-.19.78,0,1.32.26,1.65.52-.89,2.31-1.86,4.64-2.68,6.94-.1.28-.19.66.12.66.38,0,1.55-.92,2.14-1.53.28.05.42.21.42.54-.66,1.15-2.97,2.94-4.94,2.94-.59,0-1.08-.49-.8-1.2l1.32-3.34h-.05c-1.25,1.76-3.84,4.54-5.72,4.54-.8,0-1.3-.56-1.3-1.22,0-.42.16-.89.35-1.39l1.95-4.92c.12-.31.1-.61-.09-.61-.47,0-1.43.92-2.09,1.44-.26-.09-.42-.24-.4-.56.89-1.2,3.06-2.8,4.85-2.8.57,0,1.06.54,1.06.99Z"></path>
        <path class="cls-4" d="M92.22,135.13c.28-.05.52-.07.66-.07,2.97,0,3.93,1.6,3.93,3.46,0,1.29-.73,3.04-1.76,4.09-1.2,1.22-2.8,2.19-4.85,2.19-.28,0-.71-.12-.97-.24-.16.02-.26.16-.33.4l-1.06,3.13c-.26.8-.31,1.36.59,1.46l.99.09c.28.12.24.71-.12.8h-1.67c-1.46,0-2.89.09-4.85.26-.31-.14-.33-.63-.12-.82l.75-.12c.99-.16,1.22-.54,1.76-2.12l3.72-10.92c-.56.12-1.79.66-2.45,1.01-.31-.05-.42-.45-.28-.68.42-.49,2.26-1.39,3.13-1.62l.68-1.76c.21-.19.56-.33,1.13-.33.82,0,1.46.21,1.58.45l-.47,1.34ZM89.77,142.43c-.09.28-.19.66.12.97.24.26.52.38.73.38.28,0,.82-.26,1.39-.94,1.03-1.2,1.79-3.06,1.79-4.61,0-1.39-.75-1.93-1.55-1.93-.09,0-.23.02-.38.05l-2.1,6.09Z"></path>
        <path class="cls-4" d="M104.17,135.13c.28-.05.52-.07.66-.07,2.97,0,3.93,1.6,3.93,3.46,0,1.29-.73,3.04-1.76,4.09-1.2,1.22-2.8,2.19-4.85,2.19-.28,0-.71-.12-.97-.24-.16.02-.26.16-.33.4l-1.06,3.13c-.26.8-.31,1.36.59,1.46l.99.09c.28.12.24.71-.12.8h-1.67c-1.46,0-2.89.09-4.85.26-.31-.14-.33-.63-.12-.82l.75-.12c.99-.16,1.22-.54,1.76-2.12l3.72-10.92c-.56.12-1.79.66-2.45,1.01-.31-.05-.42-.45-.28-.68.42-.49,2.26-1.39,3.13-1.62l.68-1.76c.21-.19.56-.33,1.13-.33.82,0,1.46.21,1.58.45l-.47,1.34ZM101.72,142.43c-.09.28-.19.66.12.97.24.26.52.38.73.38.28,0,.82-.26,1.39-.94,1.03-1.2,1.79-3.06,1.79-4.61,0-1.39-.75-1.93-1.55-1.93-.09,0-.23.02-.38.05l-2.1,6.09Z"></path>
        <path class="cls-4" d="M119.79,138.17c0,1.69-.82,3.67-2.19,4.99-1.22,1.18-2.64,1.65-4,1.65-2.4,0-3.44-1.62-3.41-3.27.02-1.81.89-3.95,2.47-5.32,1.36-1.18,2.61-1.48,3.67-1.48,2.52,0,3.46,1.74,3.46,3.44ZM115.22,136.66c-.85,1.06-2.33,3.88-2.33,6.14,0,.59.28.96.73.96.59,0,1.11-.54,1.74-1.58.64-1.06,1.79-3.65,1.79-5.44,0-.49-.14-.99-.66-.99-.38,0-.78.28-1.27.89Z"></path>
        <path class="cls-4" d="M130.54,136.14c0,1.34-.92,2.31-1.55,2.31-.47,0-.56-.47-.68-1.08-.07-.4-.19-.54-.38-.54-.4,0-1.01.97-1.62,2.05-1.06,1.91-1.72,3.67-2.47,5.51-.14.33-.61.42-1.13.42-.59,0-1.53-.19-1.29-.94.68-2.16,1.55-4.64,2.21-6.66.14-.45.16-.75-.09-.75-.4,0-1.29.68-1.95,1.44-.28-.02-.47-.28-.42-.54.47-.94,1.98-2.61,3.69-2.61,1.37,0,1.41,1.06,1.01,2.26l-.85,2.49h.12c.78-1.39,1.39-2.4,1.95-3.13.73-.99,1.46-1.62,2.31-1.62.68,0,1.15.45,1.15,1.41Z"></path>
        <path class="cls-4" d="M136.14,136.28l-2.19,6.09c-.12.33-.12.54.14.54.42,0,1.55-.85,2.49-1.81.35.02.49.24.47.54-.8,1.2-3.2,3.15-5.13,3.15-.63,0-1.08-.52-1.08-1.01,0-.33.05-.63.26-1.27l2.14-6.24h-1.74c-.24-.19-.07-.75.19-.89l2.05-.42,1.69-2.26c.21-.14.52-.19.8-.19.33,0,.73.14.87.4l-.63,2.14h2.16c.38.31.12,1.06-.12,1.22h-2.38Z"></path>
        <path class="cls-4" d="M141.59,142.57c-.1.21-.07.35.09.35.33,0,1.62-.92,2.21-1.48.28,0,.52.26.45.57-.92,1.22-3.01,2.8-4.94,2.8-.61,0-1.08-.66-1.08-.94,0-.26.1-.54.28-1.01l2.45-5.86c.07-.19.07-.33-.05-.33-.4,0-1.72.99-2.09,1.34-.28-.05-.47-.35-.38-.56,1.27-1.55,3.48-2.71,4.73-2.71.52,0,1.08.52,1.08,1.04,0,.24-.16.68-.31,1.04l-2.45,5.77ZM144.27,129.58c.8,0,1.32.49,1.32,1.39,0,1.04-.71,1.91-1.79,1.91-.87,0-1.39-.59-1.39-1.34,0-1.04.78-1.95,1.86-1.95Z"></path>
        <path class="cls-4" d="M150.72,136.21l-1.11,2.89h.09c1.37-1.91,3.2-4.38,5.51-4.38,1.06,0,1.48.75,1.48,1.37,0,.56-.19,1.37-.47,2.09-.45,1.18-1.04,2.54-1.74,4.21-.14.33-.1.52.09.52.35,0,1.48-.92,2.1-1.6.26-.05.49.14.47.45-.66,1.18-2.61,3.04-4.94,3.04-.54,0-1.01-.49-1.01-.92,0-.35.16-.82.35-1.27.71-1.65,1.41-3.27,2-4.92.21-.56.31-.87.31-1.11,0-.19-.1-.33-.31-.33-.33,0-.97.45-1.79,1.51-1.32,1.69-2.59,4.35-3.65,6.61-.16.33-.61.42-1.13.42-.59,0-1.51-.19-1.27-.94.12-.33,1.91-5.37,2.26-6.38.16-.47.19-.85-.1-.85-.49,0-1.46.75-2,1.27-.23,0-.4-.19-.42-.38.61-1.22,2.59-2.8,4.49-2.8,1.08,0,.99.94.78,1.48Z"></path>
        <path class="cls-4" d="M156.03,148.45c0-1.84,2.64-2.68,3.91-3.08-.47-.33-.92-.66-.92-1.27s.96-1.48,1.48-1.86v-.05c-1.04-.24-2.07-1.01-2.05-2.71,0-1.62,1.55-4.75,5.41-4.75.38,0,.71.07,1.15.24.38.12.68.38.89.38.33,0,.68-.09.96-.19.38-.14.8-.28,1.15-.28.42,0,.8.28.8.96,0,.8-.52.97-.78.97-.21,0-.4-.05-.66-.14-.21-.07-.42-.14-.59-.14-.09,0-.19.09-.16.26.02.19.07.49.07.66,0,2.64-2.16,4.71-5.13,4.85-.14.12-.35.38-.35.56,0,.33.85.82,1.65,1.22,1.32.66,3.51,1.69,3.51,3.55,0,2.49-4,3.18-5.95,3.18-1.65,0-4.4-.47-4.4-2.35ZM159.7,146.52c-.4.33-.75.85-.75,1.43,0,1.08,1.25,1.69,2.75,1.69,1.32,0,2.26-.47,2.26-1.2,0-.59-.47-1.13-1.15-1.58-.89-.56-1.58-.89-1.84-.89-.23,0-.87.21-1.27.54ZM162.46,136.73c-.68.92-1.46,2.75-1.46,3.84,0,.45.24.68.63.68.52,0,1.13-.71,1.69-1.74.47-.82,1.04-2.33,1.04-2.99,0-.49-.28-.75-.59-.75-.38,0-.82.31-1.32.97Z"></path>
        <path class="cls-4" d="M180.9,136.61c0,.92-.73,1.22-1.08,1.22-.21,0-.4-.16-.54-.33-.94-1.08-1.39-1.34-1.86-1.34-.33,0-.61.31-.61.61,0,.26.14.59.61,1.06l.89.92c.82.85,1.2,1.58,1.2,2.4,0,.96-.52,1.88-1.41,2.61-.8.68-1.81,1.04-2.94,1.04s-2.33-.66-2.33-1.81c0-.75.54-1.37,1.15-1.37.26,0,.45.24.73.52.92.96,1.39,1.22,1.86,1.22.42,0,.8-.33.8-.68,0-.33-.21-.71-.68-1.2l-.78-.82c-.73-.75-1.15-1.53-1.15-2.38,0-1.01.61-1.95,1.32-2.56.68-.57,1.55-.99,2.52-.99,1.27,0,2.31.82,2.31,1.88Z"></path>
        <path class="cls-4" d="M181.18,142.07c0-1.48.8-3.62,2.12-5.11,1.41-1.58,2.94-2.24,4.24-2.24,1.37,0,2.4.64,2.4,1.81,0,.89-.75,1.48-1.6,1.48-.59,0-.92-.35-.94-.87-.02-.45-.02-1.39-.47-1.39-.38,0-.89.45-1.46,1.48-.61,1.15-1.15,2.66-1.15,4.28,0,1.13.42,1.55.99,1.55s1.39-.38,2.45-1.51c.31,0,.54.24.49.52-.78,1.22-2.64,2.71-4.68,2.71-1.55,0-2.38-1.08-2.38-2.73Z"></path>
        <path class="cls-4" d="M194.21,130.73c.28-.85.28-1.11-.14-1.34l-.66-.38c-.07-.19-.07-.4.12-.56.75-.31,3.13-.75,4.31-.8.16.02.21.09.26.24-.38.99-.68,1.81-1.13,3.06l-2.61,7.34h.05c.59-.8,1.34-1.58,2.1-2.16,1.04-.85,2.07-1.39,3.06-1.39,1.08,0,1.79.8,1.79,2.09,0,1.91-1.22,4.42-2.33,5.93-.8,1.08-2.14,2.05-3.58,2.05-.66,0-1.27-.33-1.27-.96s.54-1.06.85-1.06c.19,0,.33.09.47.26.31.35.47.49.57.49s.23-.19.45-.71c.75-1.74,1.86-4.8,1.86-5.95,0-.38-.12-.64-.42-.64-.49,0-1.51.82-2.73,2.45-1.37,1.79-2.83,5.11-3.11,5.69-.16.33-.66.42-1.18.42-.59,0-1.51-.19-1.25-.94l4.54-13.13Z"></path>
        <path class="cls-4" d="M211.9,138.17c0,1.69-.82,3.67-2.19,4.99-1.22,1.18-2.64,1.65-4,1.65-2.4,0-3.44-1.62-3.41-3.27.02-1.81.89-3.95,2.47-5.32,1.36-1.18,2.61-1.48,3.67-1.48,2.52,0,3.46,1.74,3.46,3.44ZM207.33,136.66c-.85,1.06-2.33,3.88-2.33,6.14,0,.59.28.96.73.96.59,0,1.11-.54,1.74-1.58.64-1.06,1.79-3.65,1.79-5.44,0-.49-.14-.99-.66-.99-.38,0-.78.28-1.27.89Z"></path>
        <path class="cls-4" d="M222.91,138.17c0,1.69-.82,3.67-2.19,4.99-1.22,1.18-2.64,1.65-4,1.65-2.4,0-3.44-1.62-3.41-3.27.02-1.81.89-3.95,2.47-5.32,1.36-1.18,2.61-1.48,3.67-1.48,2.52,0,3.46,1.74,3.46,3.44ZM218.34,136.66c-.85,1.06-2.33,3.88-2.33,6.14,0,.59.28.96.73.96.59,0,1.11-.54,1.74-1.58.64-1.06,1.79-3.65,1.79-5.44,0-.49-.14-.99-.66-.99-.38,0-.78.28-1.27.89Z"></path>
        <path class="cls-4" d="M223.91,143.79c0-.35.1-.75.33-1.41l4.02-11.65c.28-.85.26-1.11-.16-1.34l-.66-.38c-.07-.19-.07-.4.12-.56.75-.31,3.15-.75,4.33-.8.16.02.23.09.23.24-.35.99-.68,1.84-1.11,3.08l-3.86,11.18c-.24.66-.31,1.08.02,1.08.52,0,1.88-1.44,2.45-2.09.26-.02.49.21.45.52-.68,1.32-1.98,3.15-4.66,3.15-1.18,0-1.51-.54-1.51-1.01Z"></path>
        <path class="cls-4" d="M236.03,143.79c0-.35.1-.75.33-1.41l4.02-11.65c.28-.85.26-1.11-.16-1.34l-.66-.38c-.07-.19-.07-.4.12-.56.75-.31,3.15-.75,4.33-.8.16.02.23.09.23.24-.35.99-.68,1.84-1.11,3.08l-3.86,11.18c-.24.66-.31,1.08.02,1.08.52,0,1.88-1.44,2.45-2.09.26-.02.49.21.45.52-.68,1.32-1.98,3.15-4.66,3.15-1.18,0-1.51-.54-1.51-1.01Z"></path>
        <path class="cls-4" d="M251.84,136.61c0,2.42-4.02,3.55-5.93,4.05-.09.28-.12.63-.12,1.13,0,.63.31,1.29,1.01,1.29.85,0,1.98-.57,3.06-1.65.26,0,.49.24.47.54-1.13,1.76-3.01,2.82-5.13,2.82-1.69,0-2.52-1.2-2.52-2.71,0-2.12,1.32-4.59,3.18-6,1.32-1.01,2.59-1.37,3.69-1.37,1.36,0,2.28.85,2.28,1.88ZM247.72,136.38c-.85.92-1.41,2.38-1.62,3.25.82-.24,1.55-.63,2.24-1.34.47-.49.82-1.39.85-1.98,0-.26-.16-.54-.45-.54-.31,0-.66.21-1.01.61Z"></path>
        <path class="cls-4" d="M260.38,135.6l.54-1.11c.14-.09.38-.16.63-.16.28,0,.59.05.87.14.4.12.75.38.87.61-.89,2.21-1.93,4.82-2.82,7.44-.09.31-.12.49.05.49.33,0,1.48-.71,2.21-1.46.23,0,.47.19.45.52-1.04,1.46-3.06,2.75-4.71,2.75-.61,0-.92-.54-.92-.92,0-.26.12-.61.26-.99l.71-1.81h-.1c-1.39,1.84-3.65,3.69-5.37,3.69-.73,0-1.43-.68-1.43-1.46,0-1.39,1.39-4.33,3.53-6.26,1.55-1.39,2.94-2.02,4.19-2.02.24,0,.71.21,1.04.54ZM258.82,136.1c-.35,0-.78.21-1.58,1.22-1.18,1.48-2.33,3.81-2.33,5.13v.21c.02.24.14.38.33.38.52,0,1.81-1.39,2.52-2.33.85-1.13,1.77-2.94,2.05-3.72-.28-.68-.61-.89-.99-.89Z"></path>
        <path class="cls-4" d="M272.61,135.32l1.53-4.59c.28-.85.26-1.11-.17-1.34l-.66-.38c-.07-.19-.07-.4.12-.56.73-.31,3.15-.75,4.26-.8.16.02.24.09.24.24-.38.99-.66,1.81-1.08,3.06l-3.41,10.24c-.26.75-.38,1.29-.4,1.51,0,.14.07.28.21.28.26,0,1.41-.71,2.14-1.48.28.02.42.19.38.54-.52.78-2.45,2.78-4.78,2.78-.66,0-.89-.49-.89-.99,0-.38.23-1.01.47-1.69l.54-1.55h-.05c-1.11,1.67-2.94,4.24-5.53,4.24-1.04,0-1.74-.92-1.69-2.24.05-1.91,1.15-4.28,2.99-5.88,1.55-1.37,3.15-1.95,4.52-1.95.59,0,1.04.26,1.27.59ZM266.51,142.94c0,.35.12.52.35.52.4,0,2.05-1.25,3.13-2.64.8-1.04,1.46-2.02,1.93-3.46.31-.89.12-1.6-.28-1.6-.14,0-.35.02-.87.4-.45.33-1.3,1.11-2.26,2.49-1.15,1.65-2,3.67-2,4.28Z"></path>
        <path class="cls-4" d="M285.57,136.61c0,2.42-4.02,3.55-5.93,4.05-.09.28-.12.63-.12,1.13,0,.63.31,1.29,1.01,1.29.85,0,1.98-.57,3.06-1.65.26,0,.49.24.47.54-1.13,1.76-3.01,2.82-5.13,2.82-1.69,0-2.52-1.2-2.52-2.71,0-2.12,1.32-4.59,3.18-6,1.32-1.01,2.59-1.37,3.69-1.37,1.36,0,2.28.85,2.28,1.88ZM281.45,136.38c-.85.92-1.41,2.38-1.62,3.25.82-.24,1.55-.63,2.24-1.34.47-.49.82-1.39.85-1.98,0-.26-.16-.54-.45-.54-.31,0-.66.21-1.01.61Z"></path>
        <path class="cls-4" d="M295.4,136.14c0,1.34-.92,2.31-1.55,2.31-.47,0-.56-.47-.68-1.08-.07-.4-.19-.54-.38-.54-.4,0-1.01.97-1.62,2.05-1.06,1.91-1.72,3.67-2.47,5.51-.14.33-.61.42-1.13.42-.59,0-1.53-.19-1.29-.94.68-2.16,1.55-4.64,2.21-6.66.14-.45.16-.75-.09-.75-.4,0-1.29.68-1.95,1.44-.28-.02-.47-.28-.42-.54.47-.94,1.98-2.61,3.69-2.61,1.37,0,1.41,1.06,1.01,2.26l-.85,2.49h.12c.78-1.39,1.39-2.4,1.95-3.13.73-.99,1.46-1.62,2.31-1.62.68,0,1.15.45,1.15,1.41Z"></path>
        <path class="cls-4" d="M302.53,136.61c0,.92-.73,1.22-1.08,1.22-.21,0-.4-.16-.54-.33-.94-1.08-1.39-1.34-1.86-1.34-.33,0-.61.31-.61.61,0,.26.14.59.61,1.06l.89.92c.82.85,1.2,1.58,1.2,2.4,0,.96-.52,1.88-1.41,2.61-.8.68-1.81,1.04-2.94,1.04s-2.33-.66-2.33-1.81c0-.75.54-1.37,1.15-1.37.26,0,.45.24.73.52.92.96,1.39,1.22,1.86,1.22.42,0,.8-.33.8-.68,0-.33-.21-.71-.68-1.2l-.78-.82c-.73-.75-1.15-1.53-1.15-2.38,0-1.01.61-1.95,1.32-2.56.68-.57,1.55-.99,2.52-.99,1.27,0,2.31.82,2.31,1.88Z"></path>
        <path class="cls-4" d="M315.79,136.61c0,.92-.73,1.22-1.08,1.22-.21,0-.4-.16-.54-.33-.94-1.08-1.39-1.34-1.86-1.34-.33,0-.61.31-.61.61,0,.26.14.59.61,1.06l.89.92c.82.85,1.2,1.58,1.2,2.4,0,.96-.52,1.88-1.41,2.61-.8.68-1.81,1.04-2.94,1.04s-2.33-.66-2.33-1.81c0-.75.54-1.37,1.15-1.37.26,0,.45.24.73.52.92.96,1.39,1.22,1.86,1.22.42,0,.8-.33.8-.68,0-.33-.21-.71-.68-1.2l-.78-.82c-.73-.75-1.15-1.53-1.15-2.38,0-1.01.61-1.95,1.32-2.56.68-.57,1.55-.99,2.52-.99,1.27,0,2.31.82,2.31,1.88Z"></path>
        <path class="cls-4" d="M319.6,142.57c-.1.21-.07.35.09.35.33,0,1.62-.92,2.21-1.48.28,0,.52.26.45.57-.92,1.22-3.01,2.8-4.94,2.8-.61,0-1.08-.66-1.08-.94,0-.26.1-.54.28-1.01l2.45-5.86c.07-.19.07-.33-.05-.33-.4,0-1.72.99-2.09,1.34-.28-.05-.47-.35-.38-.56,1.27-1.55,3.48-2.71,4.73-2.71.52,0,1.08.52,1.08,1.04,0,.24-.16.68-.31,1.04l-2.45,5.77ZM322.28,129.58c.8,0,1.32.49,1.32,1.39,0,1.04-.71,1.91-1.79,1.91-.87,0-1.39-.59-1.39-1.34,0-1.04.78-1.95,1.86-1.95Z"></path>
        <path class="cls-4" d="M328.73,136.21l-1.11,2.89h.09c1.37-1.91,3.2-4.38,5.51-4.38,1.06,0,1.48.75,1.48,1.37,0,.56-.19,1.37-.47,2.09-.45,1.18-1.04,2.54-1.74,4.21-.14.33-.1.52.09.52.35,0,1.48-.92,2.1-1.6.26-.05.49.14.47.45-.66,1.18-2.61,3.04-4.94,3.04-.54,0-1.01-.49-1.01-.92,0-.35.16-.82.35-1.27.71-1.65,1.41-3.27,2-4.92.21-.56.31-.87.31-1.11,0-.19-.1-.33-.31-.33-.33,0-.97.45-1.79,1.51-1.32,1.69-2.59,4.35-3.65,6.61-.16.33-.61.42-1.13.42-.59,0-1.51-.19-1.27-.94.12-.33,1.91-5.37,2.26-6.38.16-.47.19-.85-.1-.85-.49,0-1.46.75-2,1.27-.23,0-.4-.19-.42-.38.61-1.22,2.59-2.8,4.49-2.8,1.08,0,.99.94.78,1.48Z"></path>
        <path class="cls-4" d="M336.13,142.07c0-1.48.8-3.62,2.12-5.11,1.41-1.58,2.94-2.24,4.24-2.24,1.37,0,2.4.64,2.4,1.81,0,.89-.75,1.48-1.6,1.48-.59,0-.92-.35-.94-.87-.02-.45-.02-1.39-.47-1.39-.38,0-.89.45-1.46,1.48-.61,1.15-1.15,2.66-1.15,4.28,0,1.13.42,1.55.99,1.55s1.39-.38,2.45-1.51c.31,0,.54.24.49.52-.78,1.22-2.64,2.71-4.68,2.71-1.55,0-2.38-1.08-2.38-2.73Z"></path>
        <path class="cls-4" d="M354.2,136.61c0,2.42-4.02,3.55-5.93,4.05-.09.28-.12.63-.12,1.13,0,.63.31,1.29,1.01,1.29.85,0,1.98-.57,3.06-1.65.26,0,.49.24.47.54-1.13,1.76-3.01,2.82-5.13,2.82-1.69,0-2.52-1.2-2.52-2.71,0-2.12,1.32-4.59,3.18-6,1.32-1.01,2.59-1.37,3.69-1.37,1.36,0,2.28.85,2.28,1.88ZM350.09,136.38c-.85.92-1.41,2.38-1.62,3.25.82-.24,1.55-.63,2.24-1.34.47-.49.82-1.39.85-1.98,0-.26-.16-.54-.45-.54-.31,0-.66.21-1.01.61Z"></path>
        <path class="cls-4" d="M364.93,131.55c-.24-.14-.21-.71.05-.82,1.08-.19,2.23-.42,3.27-.68.99-.24,2.14-.73,2.21-.73.21,0,.35.16.38.33-.28.68-.68,1.79-.99,2.73l-2.87,9.04c-.57,1.79-.4,2.02.78,2.19l.87.12c.23.12.16.73-.12.82-1.18-.05-2.5-.07-3.95-.07-1.27,0-2.42.02-3.51.07-.26-.21-.19-.68.07-.82l.82-.12c1.27-.19,1.43-.4,2-2.19l2.38-7.46c.35-1.11.42-1.41.42-1.69.02-.35-.26-.54-.75-.59l-1.06-.12Z"></path>
        <path class="cls-4" d="M384.74,134.4c0,3.2-2.19,6.54-5.15,8.52-2.38,1.6-6.23,2.89-8.09,2.96-.26-.12-.35-.61-.14-.82,2.7-.63,5.06-1.91,6.64-3.48,2.12-2.07,3.65-5.37,3.65-8.31,0-1.27-.21-2.78-1.67-2.78-1.72,0-2.8,2.71-2.8,4.49,0,1.37.4,2.02,1.18,2.38.33.14.68.19,1.27.21.1.09.1.38,0,.57-.52.38-1.53.61-2.14.61-2,0-3.37-1.36-3.37-3.58,0-3.06,2.75-5.77,6.02-5.77,2.99,0,4.61,1.98,4.61,4.99Z"></path>
        <path class="cls-4" d="M396.05,129.74c1.58,0,2.45-.02,2.8-.07.16.07.21.21.16.38-.78.87-1.79,2.14-3.13,3.88l-9.29,12c-.45.12-1.01-.31-.97-.82l8.61-11.11c.73-.96.99-1.37.99-1.6,0-.21-.26-.24-.66-.24h-4.38c-1.25,0-2.07.09-2.78,1.27-.21.14-.71.02-.78-.31.64-1.15,1.22-2.57,1.53-3.46.45.05,1.69.07,2.89.07h4.99Z"></path>
        <path class="cls-4" d="M409.08,129.08c.28,0,.35.24.31.4-.26.78-.94,1.67-1.58,2.24l-5.72.73c-.42.05-.66.28-.85.68l-.21.45c-.24.47,0,.54.24.56,3.03.38,6.21,1.69,6.07,5.18-.09,2.54-1.95,4.33-4.31,5.39-1.91.85-4.66,1.29-6.92,1.37-.45-.14-.45-.78-.16-.97,3.18-.19,8.31-1.43,8.31-5.13,0-2.52-2.19-3.27-5.08-3.58-.49-.05-.63-.28-.35-.82l2.49-4.96c.26-.52.49-.61,1.32-.71l6.45-.82Z"></path>
        <path class="cls-4" d="M423.85,136.57c0,2.07-1.65,3.69-3.67,3.69s-3.65-1.6-3.65-3.69,1.6-3.67,3.65-3.67,3.67,1.62,3.67,3.67Z"></path>
      </g>
    </g>
  </g>
</svg>