<?xml version="1.0" encoding="UTF-8"?><svg id="Layer_2" xmlns="http://www.w3.org/2000/svg" viewBox="0 0 685.72 303.15"><defs></defs><g id="Layer_1-2"><g><g><path class="cls-1" d="m66.72,51.03c-17.88,0-35.05,7.74-48.35,21.76C6.29,85.6,0,101.8,0,119.93s7.01,35.05,19.34,47.87c13.06,13.54,29.5,20.3,48.59,20.3,28.77,0,51.73-16.19,62.85-44.72h-32.63c-6.29,10.39-17.65,16.19-30.94,16.19-20.55,0-34.09-11.61-36.02-30.22h103.94c0-2.18.24-4.35.24-6.53,0-17.16-3.63-30.94-12.33-42.54-13.54-18.61-33.84-29.25-56.33-29.25Zm-34.56,54.39c4.6-16.19,18.61-26.59,34.56-26.59,18.37,0,30.94,9.19,36.03,26.59H32.15Z"></path><path class="cls-1" d="m284.77,113.29V0h-29.73v62.7c-11.05-7.55-24.4-11.98-38.8-11.98-38.02,0-68.84,30.82-68.84,68.85,0,12.66,3.48,24.5,9.45,34.69.56.97,1.13,1.93,1.74,2.87.37.58.76,1.14,1.16,1.71,3.45,5.12,7.54,9.87,12.39,14.04,8.95,7.82,20.03,12.71,32.36,14.46,3.82.66,7.74,1.08,11.75,1.08,14.4,0,27.75-4.43,38.8-11.99,16.51-11.29,27.83-29.58,29.73-50.59.18-2.07.32-4.15.32-6.27s-.13-4.2-.32-6.28Zm-105.64,6.64c0-20.78,16.68-38.43,37.72-38.43s36.98,16.67,36.98,38.92-16.19,37.71-35.53,37.71c-22.97,0-39.17-16.68-39.17-38.19Z"></path><path class="cls-1" d="m679.78,81.73h4.61v-26.83h-38.18V0h-30.48v113.29c-.03.37.03.75,0,1.13-.13,1.71,0,3.41,0,5.15s-.13,3.45,0,5.15c.03.37-.03.75,0,1.12,1.9,21.01,13.54,39.3,30.05,50.59.13.1.29.19.43.28,10.9,7.33,24,11.66,38.13,11.7v-30.35c-.61.02-1.2.08-1.82.08-19.34,0-35.53-16.19-35.53-37.71l-.78-38.68h33.56Z"></path><path class="cls-1" d="m462.96,126.15v110.42h29.73v-59.83c11.05,7.56,24.4,11.99,38.8,11.99,38.02,0,68.84-30.83,68.84-68.85,0-12.67-3.48-24.51-9.45-34.71-.56-.96-1.13-1.92-1.74-2.84-.37-.59-.76-1.16-1.16-1.73-3.46-5.11-7.55-9.86-12.38-14.03-8.96-7.81-20.04-12.71-32.37-14.46-3.82-.66-7.74-1.08-11.75-1.08-14.4,0-27.75,4.43-38.8,11.98-16.51,11.29-27.83,29.58-29.73,50.59-.19,2.07-.32,4.16-.32,6.28s.13,4.2.32,6.27Zm105.63-6.64c0,20.8-16.68,38.44-37.71,38.44s-36.98-16.68-36.98-38.92,16.19-37.72,35.53-37.72c22.97,0,39.16,16.68,39.16,38.19Z"></path><g><path class="cls-1" d="m336.51,118.73c0,.43.05.84.06,1.27.06-3.29.39-6.51.91-9.68-.61,2.7-.97,5.5-.97,8.41Z"></path><path class="cls-1" d="m442.63,113.3c-1.89-20.91-13.12-39.11-29.49-50.41-5.31-3.66-11.17-6.58-17.41-8.66-6.81-2.26-14.07-3.51-21.63-3.51-7.17,0-14.08,1.11-20.57,3.14-11.14,2.92-20.77,8.68-29.35,17.72-5.99,6.24-10.49,13.61-13.61,21.61-.56,1.35-1.09,2.72-1.57,4.12-2.39,6.98-3.74,14.45-3.74,22.25,0,10.84,2.57,21.05,7.03,30.18,6.08,12.94,15.97,23.45,28.5,30.06,9.64,5.35,20.7,8.45,32.46,8.59v.03h25.87v-31.26h-25.87v-.03c-19.59-.37-36.04-15.61-36.68-37.13,0-.43-.06-.84-.06-1.27,0-2.91.35-5.71.97-8.41,3.81-16.78,18.73-28.82,36.02-28.82,19.1,0,36.5,16.92,36.5,38.67,0,.21-.03.43-.03.64h.03v67.61h32.63v-62.57c.18-2.08.32-4.16.32-6.28s-.13-4.2-.32-6.27Z"></path><path class="cls-1" d="m373.25,157.16h.73c-.24,0-.48-.03-.73-.03v.03Z"></path></g></g><path class="cls-2" d="m216.82,17.95h5.71c.36,0,.65.29.65.65v431.3c0,.36-.29.65-.65.65h-5.67c-.38,0-.69-.31-.69-.69V18.6c0-.36.29-.65.65-.65Z" transform="translate(-14.58 453.93) rotate(-90)"></path><rect class="cls-2" x="598.47" y="151.48" width="7.02" height="165.55" rx=".65" ry=".65" transform="translate(367.72 836.23) rotate(-90)"></rect><g><path class="cls-1" d="m3.53,294.25c-.99,0-1.48-.53-1.48-1.59v-27.22c0-1.06.49-1.59,1.48-1.59h18.19c1.06,0,1.59.46,1.59,1.38v2.5c0,.92-.53,1.38-1.59,1.38h-13.48v6.74h12.36c1.06,0,1.59.46,1.59,1.38v2.51c0,.92-.53,1.38-1.59,1.38h-12.36v7.88h14.16c1.06,0,1.59.46,1.59,1.38v2.51c0,.92-.53,1.38-1.59,1.38H3.53Z"></path><path class="cls-1" d="m27.48,283.12c0-3.11.69-5.81,2.06-8.11,1.37-2.29,3.75-3.44,7.13-3.44,1.29,0,2.4.18,3.32.55s1.75,1.16,2.5,2.37h.08c-.06-.57-.08-1.13-.08-1.7v-8.56c0-.85.41-1.27,1.22-1.27h3.25c.81,0,1.22.42,1.22,1.27v28.74c0,.85-.42,1.27-1.27,1.27h-3.35c-.71,0-1.06-.42-1.06-1.27v-1.23c-.75,1.22-1.58,2.01-2.5,2.37s-2.03.55-3.32.55c-3.38,0-5.75-1.15-7.13-3.44-1.37-2.3-2.06-5-2.06-8.11Zm6.27,0c0,2.26.3,4.06.91,5.39.6,1.33,1.89,2,3.85,2,1.09,0,2.03-.6,2.8-1.79.78-1.2,1.17-2.75,1.17-4.65v-1.91c0-1.91-.39-3.46-1.17-4.65-.78-1.19-1.71-1.79-2.8-1.79-1.97,0-3.25.67-3.85,2-.61,1.34-.91,3.14-.91,5.4Z"></path><path class="cls-1" d="m53.89,285.01v-11.74c0-.85.42-1.27,1.27-1.27h3.39c.85,0,1.27.42,1.27,1.27v10.22c0,3.08.21,5.02.64,5.83.42.8,1.31,1.21,2.67,1.21,1.46,0,2.56-.57,3.32-1.73.76-1.15,1.14-3.54,1.14-7.17v-8.35c0-.85.42-1.27,1.26-1.27h3.37c.84,0,1.26.42,1.26,1.27v19.71c0,.85-.42,1.27-1.27,1.27h-3.35c-.85,0-1.27-.42-1.27-1.27v-1.23c-.66,1.12-1.5,1.88-2.52,2.3-1.02.42-2.22.63-3.61.63-2.16,0-3.96-.69-5.4-2.08s-2.16-3.91-2.16-7.59Z"></path><path class="cls-1" d="m78.75,284.79c-.85,0-1.27-.35-1.27-1.06v-2.42c0-.71.42-1.06,1.27-1.06h10.05c.85,0,1.27.35,1.27,1.06v2.42c0,.71-.42,1.06-1.27,1.06h-10.05Z"></path><path class="cls-1" d="m95.35,294.25c-.85,0-1.27-.42-1.27-1.27v-25.03c0-.64.15-1.22.45-1.74l1.63-2.86c.31-.54.68-.81,1.1-.81h1.48c.85,0,1.27.42,1.27,1.27v29.17c0,.85-.42,1.27-1.27,1.27h-3.39Z"></path><path class="cls-1" d="m104.59,283.12c0-3.58.89-6.4,2.68-8.46s4.31-3.09,7.58-3.09c3.79,0,6.6.98,8.44,2.93s2.76,5.09,2.76,9.41c0,.85-.4,1.27-1.19,1.27h-13.99c.23,2.35.81,3.82,1.74,4.43.93.61,2.01.91,3.24.91s2.07-.16,2.69-.47,1.14-.73,1.57-1.28c.48-.62,1.07-.72,1.78-.3l2.12,1.3c.83.51.95,1.12.36,1.83-.86,1.03-1.87,1.8-3.03,2.31s-2.99.76-5.49.76c-4.06,0-6.95-1.03-8.67-3.09s-2.59-4.88-2.59-8.45Zm6.27-2.19h9.24c0-1.53-.38-2.78-1.15-3.75-.77-.98-1.98-1.46-3.66-1.46-1.33,0-2.39.47-3.17,1.39-.78.93-1.2,2.2-1.27,3.82Z"></path><path class="cls-1" d="m129.48,283.12c0-3.11.67-5.81,2.03-8.11,1.35-2.29,3.68-3.44,7-3.44,1.27,0,2.36.18,3.26.55s1.72,1.16,2.46,2.37v-1.23c0-.85.37-1.27,1.11-1.27h3.5c.89,0,1.33.42,1.33,1.27v20.75c0,3.46-.93,5.85-2.8,7.17-1.87,1.31-4.56,1.97-8.1,1.97-1.5,0-2.88-.08-4.15-.24s-2.56-.54-3.86-1.16c-.68-.33-.79-.94-.34-1.84l.76-1.53c.31-.63.83-.76,1.55-.42.58.26,1.3.51,2.15.72.85.22,1.94.32,3.25.32,1.81,0,3.19-.33,4.15-1.01.96-.67,1.44-2.14,1.44-4.4v-.36c0-.57.03-1.13.08-1.7h-.08c-.73,1.22-1.55,2.01-2.46,2.37s-1.99.55-3.26.55c-3.32,0-5.66-1.15-7-3.44-1.35-2.3-2.03-4.93-2.03-7.89Zm6.27,0c0,2.12.29,3.84.88,5.18.58,1.33,1.83,2,3.74,2,1.06,0,1.97-.6,2.72-1.79.76-1.2,1.14-2.75,1.14-4.65v-1.7c0-1.91-.38-3.46-1.14-4.65-.76-1.19-1.66-1.79-2.72-1.79-1.91,0-3.16.67-3.74,2-.59,1.34-.88,3.14-.88,5.4Z"></path><path class="cls-1" d="m154.74,288.31c0-2.83,1.35-4.88,4.05-6.15s5.78-1.95,9.24-2.03v-.85c0-1.3-.33-2.22-.98-2.76s-1.55-.81-2.71-.81c-.82,0-1.54.12-2.17.35-.63.24-1.17.5-1.63.81-.46.31-.87.61-1.24.92-.65.57-1.19.59-1.61.08l-1.76-2.16c-.44-.54-.33-1.09.32-1.65.49-.44,1.07-.82,1.73-1.14.66-.33,1.53-.63,2.62-.92,1.09-.29,2.5-.43,4.24-.43,2.94,0,5.2.68,6.77,2.03,1.57,1.36,2.36,3.36,2.36,6v13.38c0,.85-.43,1.27-1.28,1.27h-3.5c-.77,0-1.15-.42-1.15-1.27v-.64c-.83.81-1.83,1.39-3,1.77-1.17.37-2.24.56-3.21.56-2.32,0-4.08-.57-5.28-1.71-1.2-1.14-1.8-2.69-1.8-4.65Zm6.27-.13c0,.49.1.92.3,1.28.2.36.51.63.93.8s.9.25,1.42.25c.72,0,1.42-.1,2.1-.3s1.43-.66,2.27-1.4v-4.6c-2.37.27-3.96.61-4.77,1.04s-1.38.86-1.73,1.31-.52.99-.52,1.61Z"></path><path class="cls-1" d="m181,294.25c-.85,0-1.27-.42-1.27-1.27v-25.03c0-.64.15-1.22.45-1.74l1.63-2.86c.31-.54.68-.81,1.1-.81h1.48c.85,0,1.27.42,1.27,1.27v29.17c0,.85-.42,1.27-1.27,1.27h-3.39Z"></path><path class="cls-1" d="m205.82,292.76c-.69-.49-.88-1.02-.57-1.59l1.08-1.97c.38-.71.98-.79,1.78-.25s1.75.93,2.85,1.19c1.09.25,2.09.38,3,.38.64,0,1.23-.07,1.78-.19.55-.13,1.02-.38,1.4-.74s.57-.9.57-1.61c0-.42-.11-.78-.34-1.07-.23-.29-.52-.52-.87-.67-.35-.15-.73-.28-1.12-.38-.52-.12-1.28-.33-2.26-.62-.98-.29-1.93-.63-2.83-1.02-.75-.33-1.48-.79-2.19-1.38s-1.24-1.25-1.57-1.98-.5-1.62-.5-2.68c0-1.42.41-2.68,1.24-3.75.82-1.07,1.9-1.81,3.21-2.22s2.95-.62,4.92-.62c1.33,0,2.62.19,3.88.57,1.26.39,2.15.74,2.69,1.08.85.54,1.06,1.11.64,1.71l-1.29,1.89c-.4.57-1.03.61-1.91.13-.66-.37-1.32-.66-1.96-.89-.65-.23-1.36-.34-2.15-.34-.54,0-1.05.06-1.55.17s-.92.33-1.26.64c-.35.31-.52.72-.52,1.23,0,.54.16.96.48,1.26.32.3.68.53,1.1.66.41.15.81.28,1.2.41.79.25,1.59.5,2.4.73.81.24,1.63.51,2.46.84.72.28,1.42.69,2.1,1.21s1.17,1.19,1.48,1.99.47,1.72.47,2.76c0,1.37-.41,2.64-1.23,3.82s-1.9,2.01-3.24,2.5c-1.34.49-2.9.74-4.68.74-1.99,0-3.69-.14-5.09-.42s-2.59-.78-3.58-1.48Z"></path><path class="cls-1" d="m227.53,285.01v-11.74c0-.85.42-1.27,1.27-1.27h3.39c.85,0,1.27.42,1.27,1.27v10.22c0,3.08.21,5.02.64,5.83.42.8,1.31,1.21,2.67,1.21,1.46,0,2.56-.57,3.32-1.73.76-1.15,1.14-3.54,1.14-7.17v-8.35c0-.85.42-1.27,1.26-1.27h3.37c.84,0,1.26.42,1.26,1.27v19.71c0,.85-.42,1.27-1.27,1.27h-3.35c-.85,0-1.27-.42-1.27-1.27v-1.23c-.66,1.12-1.5,1.88-2.52,2.3-1.02.42-2.22.63-3.61.63-2.16,0-3.96-.69-5.4-2.08s-2.16-3.91-2.16-7.59Z"></path><path class="cls-1" d="m254.09,302.73c-.81,0-1.22-.42-1.22-1.27v-28.19c0-.85.42-1.27,1.27-1.27h3.35c.71,0,1.06.42,1.06,1.27v1.23c.75-1.22,1.58-2.01,2.5-2.37s2.03-.55,3.32-.55c3.38,0,5.75,1.15,7.13,3.44,1.37,2.3,2.06,5,2.06,8.11s-.69,5.81-2.06,8.11c-1.37,2.29-3.75,3.44-7.13,3.44-1.29,0-2.4-.18-3.32-.55s-1.75-1.16-2.5-2.37h-.08c.06.57.08,1.13.08,1.7v8.01c0,.85-.41,1.27-1.22,1.27h-3.25Zm4.46-18.65c0,1.91.39,3.46,1.17,4.65.78,1.19,1.71,1.79,2.8,1.79,1.96,0,3.25-.67,3.85-2,.61-1.34.91-3.13.91-5.39s-.3-4.06-.91-5.4c-.6-1.33-1.89-2-3.85-2-1.09,0-2.03.6-2.8,1.79-.78,1.2-1.17,2.75-1.17,4.65v1.91Z"></path><path class="cls-1" d="m279.36,302.73c-.81,0-1.22-.42-1.22-1.27v-28.19c0-.85.42-1.27,1.27-1.27h3.35c.71,0,1.06.42,1.06,1.27v1.23c.75-1.22,1.58-2.01,2.5-2.37s2.03-.55,3.32-.55c3.38,0,5.75,1.15,7.13,3.44,1.37,2.3,2.06,5,2.06,8.11s-.69,5.81-2.06,8.11c-1.38,2.29-3.75,3.44-7.13,3.44-1.3,0-2.4-.18-3.32-.55s-1.75-1.16-2.5-2.37h-.08c.06.57.08,1.13.08,1.7v8.01c0,.85-.41,1.27-1.22,1.27h-3.25Zm4.47-18.65c0,1.91.39,3.46,1.17,4.65.78,1.19,1.71,1.79,2.81,1.79,1.96,0,3.25-.67,3.85-2,.6-1.34.9-3.13.9-5.39s-.3-4.06-.9-5.4c-.61-1.33-1.89-2-3.85-2-1.09,0-2.03.6-2.81,1.79-.78,1.2-1.17,2.75-1.17,4.65v1.91Z"></path><path class="cls-1" d="m302.22,283.12c0-3.61.93-6.43,2.79-8.48,1.86-2.05,4.62-3.08,8.3-3.08s6.44,1.03,8.29,3.08c1.86,2.05,2.79,4.87,2.79,8.48s-.93,6.43-2.79,8.48c-1.86,2.05-4.63,3.07-8.29,3.07s-6.44-1.02-8.3-3.07c-1.86-2.05-2.79-4.88-2.79-8.48Zm6.27,0c0,2.68.41,4.59,1.24,5.71.83,1.13,2.02,1.69,3.58,1.69s2.74-.56,3.57-1.69c.82-1.12,1.24-3.02,1.24-5.71s-.41-4.59-1.24-5.71c-.83-1.13-2.02-1.69-3.57-1.69s-2.75.56-3.58,1.69c-.82,1.12-1.24,3.03-1.24,5.71Z"></path><path class="cls-1" d="m330.23,294.25c-.84,0-1.26-.42-1.26-1.27v-19.71c0-.85.42-1.27,1.27-1.27h3.35c.85,0,1.27.42,1.27,1.27v1.74c.37-.9.99-1.7,1.87-2.39s1.9-1.04,3.09-1.04c.81,0,1.48.1,2.01.3.49.18.69.52.57,1.02l-.59,2.52c-.13.57-.51.73-1.14.51-.37-.13-.73-.19-1.06-.19-1.37,0-2.5.81-3.4,2.44-.89,1.63-1.34,3.99-1.34,7.1v7.72c0,.85-.42,1.27-1.26,1.27h-3.37Z"></path><path class="cls-1" d="m344.88,276.23c-.83,0-1.25-.35-1.25-1.06v-2.12c0-.71.41-1.06,1.25-1.06h1.44v-.74c0-.64.15-1.22.45-1.74l1.64-2.86c.31-.54.68-.81,1.1-.81h1.48c.85,0,1.27.42,1.27,1.27v4.88h3.44c.83,0,1.25.35,1.25,1.06v2.12c0,.71-.42,1.06-1.25,1.06h-3.44v10.51c0,1.44.1,2.48.31,3.1.2.63.73.94,1.6.94.43,0,.93-.07,1.48-.22.56-.15.98-.29,1.3-.43.49-.23.82-.06.98.49l.64,2.42c.13.48-.06.83-.55,1.06-.47.22-1.11.41-1.92.58-.81.18-1.63.26-2.45.26-2.02,0-3.74-.41-5.17-1.25-1.43-.83-2.15-2.55-2.15-5.15v-12.32h-1.44Z"></path><path class="cls-1" d="m376.64,276.23c-.83,0-1.25-.35-1.25-1.06v-2.12c0-.71.41-1.06,1.25-1.06h1.19v-2.97c0-2.6.74-4.33,2.23-5.2,1.48-.86,3.25-1.29,5.3-1.29.98,0,1.81.06,2.51.17.7.11,1.32.25,1.86.42.51.17.69.52.55,1.06l-.64,2.4c-.13.46-.45.61-.98.42-.31-.11-.74-.2-1.3-.24-.56-.05-1-.08-1.32-.08-1.03,0-1.67.36-1.91,1.08-.24.72-.36,1.84-.36,3.37v.85h2.8c.83,0,1.25.35,1.25,1.06v2.12c0,.71-.42,1.06-1.25,1.06h-2.8v16.74c0,.85-.42,1.27-1.27,1.27h-3.39c-.85,0-1.27-.42-1.27-1.27v-16.74h-1.19Z"></path><path class="cls-1" d="m390.65,283.12c0-3.61.93-6.43,2.79-8.48,1.86-2.05,4.62-3.08,8.3-3.08s6.44,1.03,8.29,3.08c1.86,2.05,2.79,4.87,2.79,8.48s-.93,6.43-2.79,8.48c-1.86,2.05-4.63,3.07-8.29,3.07s-6.44-1.02-8.3-3.07c-1.86-2.05-2.79-4.88-2.79-8.48Zm6.27,0c0,2.68.41,4.59,1.24,5.71.83,1.13,2.02,1.69,3.58,1.69s2.74-.56,3.57-1.69c.82-1.12,1.24-3.02,1.24-5.71s-.41-4.59-1.24-5.71c-.83-1.13-2.02-1.69-3.57-1.69s-2.75.56-3.58,1.69c-.82,1.12-1.24,3.03-1.24,5.71Z"></path><path class="cls-1" d="m418.66,294.25c-.84,0-1.26-.42-1.26-1.27v-19.71c0-.85.42-1.27,1.27-1.27h3.35c.85,0,1.27.42,1.27,1.27v1.74c.37-.9.99-1.7,1.87-2.39s1.9-1.04,3.09-1.04c.81,0,1.48.1,2.01.3.49.18.69.52.57,1.02l-.59,2.52c-.13.57-.51.73-1.14.51-.37-.13-.73-.19-1.06-.19-1.37,0-2.5.81-3.4,2.44-.89,1.63-1.34,3.99-1.34,7.1v7.72c0,.85-.42,1.27-1.26,1.27h-3.37Z"></path><path class="cls-1" d="m448.45,292.76c-.7-.49-.89-1.02-.57-1.59l1.08-1.97c.38-.71.97-.79,1.78-.25.8.54,1.75.93,2.85,1.19,1.09.25,2.09.38,3,.38.63,0,1.22-.07,1.78-.19.55-.13,1.02-.38,1.39-.74.39-.37.57-.9.57-1.61,0-.42-.11-.78-.34-1.07-.23-.29-.52-.52-.87-.67-.36-.15-.73-.28-1.13-.38-.52-.12-1.28-.33-2.26-.62-.98-.29-1.93-.63-2.83-1.02-.75-.33-1.48-.79-2.19-1.38-.71-.59-1.23-1.25-1.57-1.98-.33-.73-.5-1.62-.5-2.68,0-1.42.41-2.68,1.24-3.75.82-1.07,1.89-1.81,3.21-2.22,1.31-.41,2.95-.62,4.92-.62,1.32,0,2.62.19,3.88.57,1.26.39,2.15.74,2.69,1.08.85.54,1.06,1.11.64,1.71l-1.3,1.89c-.4.57-1.03.61-1.91.13-.66-.37-1.32-.66-1.96-.89-.65-.23-1.36-.34-2.15-.34-.54,0-1.06.06-1.55.17s-.91.33-1.26.64c-.35.31-.52.72-.52,1.23,0,.54.16.96.48,1.26.32.3.68.53,1.1.66.41.15.81.28,1.2.41.79.25,1.59.5,2.39.73.81.24,1.62.51,2.46.84.73.28,1.42.69,2.1,1.21s1.17,1.19,1.48,1.99.47,1.72.47,2.76c0,1.37-.41,2.64-1.23,3.82s-1.9,2.01-3.25,2.5c-1.34.49-2.9.74-4.68.74-1.99,0-3.69-.14-5.09-.42s-2.6-.78-3.58-1.48Z"></path><path class="cls-1" d="m469.01,283.12c0-3.61.9-6.43,2.71-8.48s4.58-3.08,8.33-3.08c2.19,0,3.9.29,5.11.87s2.19,1.43,2.93,2.54c.44.66.37,1.19-.21,1.56l-2.25,1.49c-.64.42-1.2.26-1.68-.49-.24-.37-.7-.76-1.38-1.19s-1.52-.64-2.52-.64c-1.6,0-2.79.56-3.58,1.69-.79,1.12-1.19,3.03-1.19,5.71s.4,4.59,1.19,5.71c.79,1.13,1.98,1.69,3.58,1.69,1.15,0,2.07-.24,2.78-.72s1.37-1.1,1.99-1.87c.54-.65,1.1-.74,1.7-.28l1.97,1.55c.59.47.63,1.09.1,1.87-.55.82-1.49,1.63-2.81,2.42-1.32.79-3.23,1.19-5.74,1.19-3.74,0-6.52-1.02-8.33-3.07s-2.71-4.88-2.71-8.48Z"></path><path class="cls-1" d="m494.49,294.25c-.85,0-1.27-.42-1.27-1.27v-28.74c0-.85.42-1.27,1.27-1.27h3.39c.85,0,1.27.42,1.27,1.27v8.56c0,.57-.03,1.13-.08,1.7h.08c.65-1.12,1.48-1.88,2.49-2.3,1.01-.42,2.22-.63,3.64-.63,2.21,0,4.04.69,5.49,2.08s2.17,3.91,2.17,7.59v11.74c0,.85-.42,1.27-1.27,1.27h-3.39c-.85,0-1.27-.42-1.27-1.27v-10.22c0-3.08-.21-5.03-.64-5.83-.42-.81-1.34-1.21-2.73-1.21-1.49,0-2.6.57-3.35,1.73-.75,1.15-1.12,3.54-1.12,7.17v8.35c0,.85-.42,1.27-1.27,1.27h-3.39Z"></path><path class="cls-1" d="m517.46,283.12c0-3.61.93-6.43,2.79-8.48,1.86-2.05,4.62-3.08,8.3-3.08s6.44,1.03,8.29,3.08c1.86,2.05,2.79,4.87,2.79,8.48s-.93,6.43-2.79,8.48c-1.86,2.05-4.63,3.07-8.29,3.07s-6.44-1.02-8.3-3.07c-1.86-2.05-2.79-4.88-2.79-8.48Zm6.27,0c0,2.68.41,4.59,1.24,5.71.83,1.13,2.02,1.69,3.58,1.69s2.74-.56,3.57-1.69c.82-1.12,1.24-3.02,1.24-5.71s-.41-4.59-1.24-5.71c-.83-1.13-2.02-1.69-3.57-1.69s-2.75.56-3.58,1.69c-.82,1.12-1.24,3.03-1.24,5.71Z"></path><path class="cls-1" d="m543.03,283.12c0-3.61.93-6.43,2.79-8.48,1.86-2.05,4.62-3.08,8.3-3.08s6.44,1.03,8.29,3.08c1.86,2.05,2.79,4.87,2.79,8.48s-.93,6.43-2.79,8.48c-1.86,2.05-4.63,3.07-8.29,3.07s-6.44-1.02-8.3-3.07c-1.86-2.05-2.79-4.88-2.79-8.48Zm6.27,0c0,2.68.41,4.59,1.24,5.71.83,1.13,2.02,1.69,3.58,1.69s2.74-.56,3.57-1.69c.82-1.12,1.24-3.02,1.24-5.71s-.41-4.59-1.24-5.71c-.83-1.13-2.02-1.69-3.57-1.69s-2.75.56-3.58,1.69c-.82,1.12-1.24,3.03-1.24,5.71Z"></path><path class="cls-1" d="m571.05,294.25c-.85,0-1.27-.42-1.27-1.27v-25.03c0-.64.15-1.22.44-1.74l1.63-2.86c.31-.54.68-.81,1.1-.81h1.48c.85,0,1.27.42,1.27,1.27v29.17c0,.85-.42,1.27-1.27,1.27h-3.39Z"></path><path class="cls-1" d="m595.87,292.76c-.7-.49-.89-1.02-.57-1.59l1.08-1.97c.38-.71.97-.79,1.78-.25.8.54,1.75.93,2.85,1.19,1.09.25,2.09.38,3,.38.63,0,1.22-.07,1.78-.19.55-.13,1.02-.38,1.39-.74.39-.37.57-.9.57-1.61,0-.42-.11-.78-.34-1.07-.23-.29-.52-.52-.87-.67-.36-.15-.73-.28-1.13-.38-.52-.12-1.28-.33-2.26-.62-.98-.29-1.93-.63-2.83-1.02-.75-.33-1.48-.79-2.19-1.38-.71-.59-1.23-1.25-1.57-1.98-.33-.73-.5-1.62-.5-2.68,0-1.42.41-2.68,1.24-3.75.82-1.07,1.89-1.81,3.21-2.22,1.31-.41,2.95-.62,4.92-.62,1.32,0,2.62.19,3.88.57,1.26.39,2.15.74,2.69,1.08.85.54,1.06,1.11.64,1.71l-1.3,1.89c-.4.57-1.03.61-1.91.13-.66-.37-1.32-.66-1.96-.89-.65-.23-1.36-.34-2.15-.34-.54,0-1.06.06-1.55.17s-.91.33-1.26.64c-.35.31-.52.72-.52,1.23,0,.54.16.96.48,1.26.32.3.68.53,1.1.66.41.15.81.28,1.2.41.79.25,1.59.5,2.39.73.81.24,1.63.51,2.46.84.73.28,1.42.69,2.1,1.21s1.17,1.19,1.48,1.99.47,1.72.47,2.76c0,1.37-.41,2.64-1.23,3.82s-1.9,2.01-3.25,2.5c-1.34.49-2.9.74-4.68.74-1.99,0-3.69-.14-5.09-.42s-2.6-.78-3.58-1.48Z"></path><path class="cls-1" d="m616.87,276.23c-.83,0-1.25-.35-1.25-1.06v-2.12c0-.71.41-1.06,1.25-1.06h1.44v-.74c0-.64.15-1.22.45-1.74l1.63-2.86c.31-.54.68-.81,1.1-.81h1.48c.85,0,1.27.42,1.27,1.27v4.88h3.44c.83,0,1.25.35,1.25,1.06v2.12c0,.71-.42,1.06-1.25,1.06h-3.44v10.51c0,1.44.1,2.48.31,3.1.2.63.73.94,1.6.94.43,0,.93-.07,1.48-.22.56-.15.98-.29,1.3-.43.49-.23.82-.06.98.49l.64,2.42c.13.48-.06.83-.55,1.06-.47.22-1.11.41-1.92.58-.81.18-1.63.26-2.45.26-2.02,0-3.74-.41-5.17-1.25s-2.14-2.55-2.14-5.15v-12.32h-1.44Z"></path><path class="cls-1" d="m633.34,288.31c0-2.83,1.35-4.88,4.05-6.15,2.69-1.27,5.77-1.95,9.24-2.03v-.85c0-1.3-.33-2.22-.98-2.76s-1.55-.81-2.71-.81c-.82,0-1.54.12-2.17.35-.63.24-1.17.5-1.63.81-.46.31-.88.61-1.24.92-.65.57-1.19.59-1.61.08l-1.76-2.16c-.44-.54-.33-1.09.32-1.65.49-.44,1.07-.82,1.72-1.14.66-.33,1.53-.63,2.62-.92,1.09-.29,2.5-.43,4.24-.43,2.94,0,5.2.68,6.77,2.03,1.57,1.36,2.36,3.36,2.36,6v13.38c0,.85-.43,1.27-1.28,1.27h-3.5c-.77,0-1.15-.42-1.15-1.27v-.64c-.84.81-1.84,1.39-3,1.77-1.17.37-2.24.56-3.21.56-2.32,0-4.08-.57-5.28-1.71-1.2-1.14-1.8-2.69-1.8-4.65Zm6.27-.13c0,.49.1.92.3,1.28.2.36.51.63.93.8s.89.25,1.42.25c.73,0,1.42-.1,2.1-.3s1.43-.66,2.27-1.4v-4.6c-2.37.27-3.97.61-4.77,1.04-.81.42-1.38.86-1.73,1.31-.34.45-.52.99-.52,1.61Z"></path><path class="cls-1" d="m657.59,276.23c-.83,0-1.25-.35-1.25-1.06v-2.12c0-.71.41-1.06,1.25-1.06h1.19v-2.97c0-2.6.74-4.33,2.23-5.2,1.48-.86,3.25-1.29,5.3-1.29.98,0,1.81.06,2.51.17.7.11,1.32.25,1.86.42.51.17.69.52.55,1.06l-.64,2.4c-.13.46-.45.61-.98.42-.31-.11-.74-.2-1.3-.24-.56-.05-1-.08-1.32-.08-1.03,0-1.67.36-1.91,1.08-.24.72-.36,1.84-.36,3.37v.85h2.8c.83,0,1.25.35,1.25,1.06v2.12c0,.71-.42,1.06-1.25,1.06h-2.8v16.74c0,.85-.42,1.27-1.27,1.27h-3.39c-.85,0-1.27-.42-1.27-1.27v-16.74h-1.19Z"></path><path class="cls-1" d="m672.04,276.23c-.83,0-1.25-.35-1.25-1.06v-2.12c0-.71.41-1.06,1.25-1.06h1.19v-2.97c0-2.6.74-4.33,2.23-5.2,1.48-.86,3.25-1.29,5.3-1.29.98,0,1.81.06,2.51.17.7.11,1.32.25,1.86.42.51.17.69.52.55,1.06l-.64,2.4c-.13.46-.45.61-.98.42-.31-.11-.74-.2-1.3-.24-.56-.05-1-.08-1.32-.08-1.03,0-1.67.36-1.91,1.08-.24.72-.36,1.84-.36,3.37v.85h2.8c.83,0,1.25.35,1.25,1.06v2.12c0,.71-.42,1.06-1.25,1.06h-2.8v16.74c0,.85-.42,1.27-1.27,1.27h-3.39c-.85,0-1.27-.42-1.27-1.27v-16.74h-1.19Z"></path></g></g></g></svg>